<mxfile host="app.diagrams.net" modified="2024-09-17T15:16:49.240Z" agent="Mozilla/5.0 (Windows NT 10.0; Win64; x64; rv:130.0) Gecko/20100101 Firefox/130.0" etag="bWr9Gmh6yGwOThJujqL_" version="24.4.8" type="device">
  <diagram name="Page-1" id="ZwKQIrWiFJMTwKsUFeU5">
    <mxGraphModel dx="1185" dy="625" grid="1" gridSize="10" guides="1" tooltips="1" connect="1" arrows="1" fold="1" page="1" pageScale="1" pageWidth="1169" pageHeight="827" math="0" shadow="0">
      <root>
        <mxCell id="0" />
        <mxCell id="1" parent="0" />
        <mxCell id="Shv-Q1wjexJs2w0wgAbR-58" value="" style="rounded=0;whiteSpace=wrap;html=1;" parent="1" vertex="1">
          <mxGeometry x="500" y="390" width="220" height="260" as="geometry" />
        </mxCell>
        <mxCell id="Shv-Q1wjexJs2w0wgAbR-35" value="&lt;b&gt;PREC&lt;/b&gt;" style="text;html=1;strokeColor=none;fillColor=none;align=center;verticalAlign=middle;whiteSpace=wrap;rounded=0;" parent="1" vertex="1">
          <mxGeometry x="500" y="390" width="60" height="30" as="geometry" />
        </mxCell>
        <mxCell id="Shv-Q1wjexJs2w0wgAbR-36" value="&lt;p style=&quot;line-height: 80%;&quot;&gt;PG &lt;font style=&quot;font-size: 9px;&quot;&gt;from one of the supported APIs :&lt;br&gt;Gremlin, Cypher (or a PREC-0 graph)&lt;br&gt;&lt;/font&gt;&lt;/p&gt;" style="rounded=1;whiteSpace=wrap;html=1;" parent="1" vertex="1">
          <mxGeometry x="510" y="310" width="110" height="60" as="geometry" />
        </mxCell>
        <mxCell id="Shv-Q1wjexJs2w0wgAbR-37" value="&lt;div&gt;PREC-C Context&lt;/div&gt;&lt;div&gt;&lt;font style=&quot;font-size: 8px;&quot;&gt;or&lt;/font&gt;&lt;br&gt;&lt;/div&gt;&lt;div&gt;PRSC context&lt;br&gt;&lt;/div&gt;" style="rounded=1;whiteSpace=wrap;html=1;" parent="1" vertex="1">
          <mxGeometry x="630" y="310" width="100" height="60" as="geometry" />
        </mxCell>
        <mxCell id="Shv-Q1wjexJs2w0wgAbR-38" value="PREC-C" style="shape=process;whiteSpace=wrap;html=1;backgroundOutline=1;" parent="1" vertex="1">
          <mxGeometry x="510" y="570" width="80" height="40" as="geometry" />
        </mxCell>
        <mxCell id="Shv-Q1wjexJs2w0wgAbR-39" value="PRSC" style="shape=process;whiteSpace=wrap;html=1;backgroundOutline=1;" parent="1" vertex="1">
          <mxGeometry x="630" y="570" width="80" height="40" as="geometry" />
        </mxCell>
        <mxCell id="Shv-Q1wjexJs2w0wgAbR-40" value="RDF graph" style="rounded=1;whiteSpace=wrap;html=1;" parent="1" vertex="1">
          <mxGeometry x="570" y="670" width="80" height="40" as="geometry" />
        </mxCell>
        <mxCell id="Shv-Q1wjexJs2w0wgAbR-41" value="or" style="text;html=1;strokeColor=none;fillColor=none;align=center;verticalAlign=middle;whiteSpace=wrap;rounded=0;" parent="1" vertex="1">
          <mxGeometry x="595" y="620" width="30" height="20" as="geometry" />
        </mxCell>
        <mxCell id="Shv-Q1wjexJs2w0wgAbR-42" value="" style="endArrow=classic;html=1;rounded=0;exitX=0.5;exitY=1;exitDx=0;exitDy=0;entryX=0;entryY=0.5;entryDx=0;entryDy=0;" parent="1" source="Shv-Q1wjexJs2w0wgAbR-38" target="Shv-Q1wjexJs2w0wgAbR-41" edge="1">
          <mxGeometry width="50" height="50" relative="1" as="geometry">
            <mxPoint x="600" y="530" as="sourcePoint" />
            <mxPoint x="650" y="480" as="targetPoint" />
          </mxGeometry>
        </mxCell>
        <mxCell id="Shv-Q1wjexJs2w0wgAbR-43" value="" style="endArrow=classic;html=1;rounded=0;exitX=0.5;exitY=1;exitDx=0;exitDy=0;entryX=1;entryY=0.5;entryDx=0;entryDy=0;" parent="1" source="Shv-Q1wjexJs2w0wgAbR-39" target="Shv-Q1wjexJs2w0wgAbR-41" edge="1">
          <mxGeometry width="50" height="50" relative="1" as="geometry">
            <mxPoint x="600" y="530" as="sourcePoint" />
            <mxPoint x="650" y="480" as="targetPoint" />
          </mxGeometry>
        </mxCell>
        <mxCell id="Shv-Q1wjexJs2w0wgAbR-44" value="" style="endArrow=classic;html=1;rounded=0;exitX=0.5;exitY=1;exitDx=0;exitDy=0;entryX=0.5;entryY=0;entryDx=0;entryDy=0;" parent="1" source="Shv-Q1wjexJs2w0wgAbR-41" target="Shv-Q1wjexJs2w0wgAbR-40" edge="1">
          <mxGeometry width="50" height="50" relative="1" as="geometry">
            <mxPoint x="600" y="560" as="sourcePoint" />
            <mxPoint x="650" y="510" as="targetPoint" />
          </mxGeometry>
        </mxCell>
        <mxCell id="Shv-Q1wjexJs2w0wgAbR-45" value="" style="endArrow=classic;html=1;rounded=0;entryX=0.5;entryY=0;entryDx=0;entryDy=0;" parent="1" edge="1">
          <mxGeometry width="50" height="50" relative="1" as="geometry">
            <mxPoint x="609.8" y="510" as="sourcePoint" />
            <mxPoint x="609.8" y="530" as="targetPoint" />
          </mxGeometry>
        </mxCell>
        <mxCell id="Shv-Q1wjexJs2w0wgAbR-46" value="" style="endArrow=none;html=1;rounded=0;entryX=0.5;entryY=1;entryDx=0;entryDy=0;" parent="1" target="Shv-Q1wjexJs2w0wgAbR-56" edge="1">
          <mxGeometry width="50" height="50" relative="1" as="geometry">
            <mxPoint x="610" y="510" as="sourcePoint" />
            <mxPoint x="880" y="460" as="targetPoint" />
          </mxGeometry>
        </mxCell>
        <mxCell id="Shv-Q1wjexJs2w0wgAbR-47" value="" style="endArrow=none;html=1;rounded=0;entryX=0.5;entryY=1;entryDx=0;entryDy=0;" parent="1" target="Shv-Q1wjexJs2w0wgAbR-37" edge="1">
          <mxGeometry width="50" height="50" relative="1" as="geometry">
            <mxPoint x="610" y="510" as="sourcePoint" />
            <mxPoint x="640" y="400" as="targetPoint" />
          </mxGeometry>
        </mxCell>
        <mxCell id="Shv-Q1wjexJs2w0wgAbR-48" value="&lt;br&gt;&lt;p style=&quot;line-height: 40%;&quot;&gt;&lt;font style=&quot;font-size: 12px;&quot;&gt;Choose one converter&lt;br&gt;&lt;/font&gt;&lt;font style=&quot;font-size: 5px;&quot;&gt;(depends on the context type)&lt;/font&gt;&lt;/p&gt;&lt;br&gt;" style="text;html=1;strokeColor=none;fillColor=none;align=center;verticalAlign=middle;whiteSpace=wrap;rounded=0;" parent="1" vertex="1">
          <mxGeometry x="542.5" y="530" width="135" height="30" as="geometry" />
        </mxCell>
        <mxCell id="Shv-Q1wjexJs2w0wgAbR-49" value="" style="endArrow=classic;html=1;rounded=0;exitX=0.25;exitY=1;exitDx=0;exitDy=0;entryX=0.5;entryY=0;entryDx=0;entryDy=0;" parent="1" source="Shv-Q1wjexJs2w0wgAbR-48" target="Shv-Q1wjexJs2w0wgAbR-38" edge="1">
          <mxGeometry width="50" height="50" relative="1" as="geometry">
            <mxPoint x="580" y="590" as="sourcePoint" />
            <mxPoint x="630" y="540" as="targetPoint" />
          </mxGeometry>
        </mxCell>
        <mxCell id="Shv-Q1wjexJs2w0wgAbR-50" value="" style="endArrow=classic;html=1;rounded=0;exitX=0.75;exitY=1;exitDx=0;exitDy=0;entryX=0.5;entryY=0;entryDx=0;entryDy=0;" parent="1" source="Shv-Q1wjexJs2w0wgAbR-48" target="Shv-Q1wjexJs2w0wgAbR-39" edge="1">
          <mxGeometry width="50" height="50" relative="1" as="geometry">
            <mxPoint x="580" y="590" as="sourcePoint" />
            <mxPoint x="630" y="540" as="targetPoint" />
          </mxGeometry>
        </mxCell>
        <mxCell id="Shv-Q1wjexJs2w0wgAbR-52" value="PREC-0" style="shape=process;whiteSpace=wrap;html=1;backgroundOutline=1;fillOpacity=100;opacity=50;textOpacity=50;" parent="1" vertex="1">
          <mxGeometry x="530" y="420" width="70" height="26" as="geometry" />
        </mxCell>
        <mxCell id="Shv-Q1wjexJs2w0wgAbR-53" value="" style="endArrow=classic;html=1;rounded=0;exitX=0.5;exitY=1;exitDx=0;exitDy=0;entryX=0.5;entryY=0;entryDx=0;entryDy=0;" parent="1" source="Shv-Q1wjexJs2w0wgAbR-36" target="Shv-Q1wjexJs2w0wgAbR-52" edge="1">
          <mxGeometry width="50" height="50" relative="1" as="geometry">
            <mxPoint x="500" y="490" as="sourcePoint" />
            <mxPoint x="550" y="440" as="targetPoint" />
          </mxGeometry>
        </mxCell>
        <mxCell id="Shv-Q1wjexJs2w0wgAbR-56" value="Intermediate representation of the PG = PREC-0 graph" style="rounded=1;whiteSpace=wrap;html=1;fontSize=8;opacity=50;textOpacity=50;" parent="1" vertex="1">
          <mxGeometry x="515" y="470" width="100" height="20" as="geometry" />
        </mxCell>
        <mxCell id="Shv-Q1wjexJs2w0wgAbR-59" value="" style="endArrow=classic;html=1;rounded=0;exitX=0.5;exitY=1;exitDx=0;exitDy=0;entryX=0.5;entryY=0;entryDx=0;entryDy=0;opacity=50;" parent="1" source="Shv-Q1wjexJs2w0wgAbR-52" target="Shv-Q1wjexJs2w0wgAbR-56" edge="1">
          <mxGeometry width="50" height="50" relative="1" as="geometry">
            <mxPoint x="480" y="530" as="sourcePoint" />
            <mxPoint x="530" y="480" as="targetPoint" />
          </mxGeometry>
        </mxCell>
      </root>
    </mxGraphModel>
  </diagram>
</mxfile>
